<svg width="50" height="49" viewBox="0 0 50 49" fill="none" xmlns="http://www.w3.org/2000/svg">
<path d="M41.667 6.25H8.33366C6.03574 6.25 4.16699 8.11875 4.16699 10.4167V39.5833C4.16699 40.6884 4.60598 41.7482 5.38738 42.5296C6.16878 43.311 7.22859 43.75 8.33366 43.75H41.667C42.7721 43.75 43.8319 43.311 44.6133 42.5296C45.3947 41.7482 45.8337 40.6884 45.8337 39.5833V10.4167C45.8337 8.11875 43.9649 6.25 41.667 6.25ZM39.5837 25H33.0378C32.1087 28.5875 28.8774 31.25 25.0003 31.25C21.1232 31.25 17.892 28.5875 16.9628 25H8.33366V10.4167H41.667V25H39.5837Z" fill="black"/>
</svg>
