<svg width="51" height="50" viewBox="0 0 51 50" fill="none" xmlns="http://www.w3.org/2000/svg">
<path d="M9.38281 43.75C9.38281 43.75 6.25781 43.75 6.25781 40.625C6.25781 37.5 9.38281 28.125 25.0078 28.125C40.6328 28.125 43.7578 37.5 43.7578 40.625C43.7578 43.75 40.6328 43.75 40.6328 43.75H9.38281ZM25.0078 25C27.4942 25 29.8788 24.0123 31.6369 22.2541C33.3951 20.496 34.3828 18.1114 34.3828 15.625C34.3828 13.1386 33.3951 10.754 31.6369 8.99587C29.8788 7.23772 27.4942 6.25 25.0078 6.25C22.5214 6.25 20.1368 7.23772 18.3787 8.99587C16.6205 10.754 15.6328 13.1386 15.6328 15.625C15.6328 18.1114 16.6205 20.496 18.3787 22.2541C20.1368 24.0123 22.5214 25 25.0078 25Z" fill="#69399A"/>
</svg>
