<svg width="51" height="50" viewBox="0 0 51 50" fill="none" xmlns="http://www.w3.org/2000/svg">
<path d="M33.3408 9.375C33.3408 8.5462 33.6701 7.75134 34.2561 7.16529C34.8422 6.57924 35.637 6.25 36.4658 6.25H40.6325C41.4613 6.25 42.2561 6.57924 42.8422 7.16529C43.4282 7.75134 43.7575 8.5462 43.7575 9.375V40.625C43.7575 41.4538 43.4282 42.2487 42.8422 42.8347C42.2561 43.4208 41.4613 43.75 40.6325 43.75H36.4658C35.637 43.75 34.8422 43.4208 34.2561 42.8347C33.6701 42.2487 33.3408 41.4538 33.3408 40.625V9.375Z" fill="#636363"/>
<path d="M19.7998 21.875C19.7998 21.0462 20.129 20.2513 20.7151 19.6653C21.3011 19.0792 22.096 18.75 22.9248 18.75H27.0915C27.9203 18.75 28.7151 19.0792 29.3012 19.6653C29.8872 20.2513 30.2165 21.0462 30.2165 21.875V40.625C30.2165 41.4538 29.8872 42.2487 29.3012 42.8347C28.7151 43.4208 27.9203 43.75 27.0915 43.75H22.9248C22.096 43.75 21.3011 43.4208 20.7151 42.8347C20.129 42.2487 19.7998 41.4538 19.7998 40.625V21.875Z" fill="#636363"/>
<path d="M9.38281 31.25C8.55401 31.25 7.75916 31.5792 7.1731 32.1653C6.58705 32.7513 6.25781 33.5462 6.25781 34.375V40.625C6.25781 41.4538 6.58705 42.2487 7.1731 42.8347C7.75916 43.4208 8.55401 43.75 9.38281 43.75H13.5495C14.3783 43.75 15.1731 43.4208 15.7592 42.8347C16.3452 42.2487 16.6745 41.4538 16.6745 40.625V34.375C16.6745 33.5462 16.3452 32.7513 15.7592 32.1653C15.1731 31.5792 14.3783 31.25 13.5495 31.25H9.38281Z" fill="#636363"/>
</svg>
